<svg id="Ebene_1" data-name="Ebene 1" xmlns="http://www.w3.org/2000/svg" viewBox="0 0 1822.37 1822.37"><defs><style>.cls-1,.cls-2{fill:#fff;}.cls-2{stroke:#fff;stroke-linecap:round;stroke-linejoin:round;stroke-width:50px;}</style></defs><path d="M1000,1891.18a193.18,193.18,0,0,1-137.48-56.94L165.76,1137.48c-75.8-75.81-75.8-199.15,0-275L862.52,165.76a194.44,194.44,0,0,1,275,0l696.76,696.76c75.8,75.81,75.8,199.15,0,275l-696.76,696.76A193.18,193.18,0,0,1,1000,1891.18Z" transform="translate(-88.82 -88.82)"/><path class="cls-1" d="M1000,128.82a173.27,173.27,0,0,1,123.33,51.08L1820.1,876.67a174.43,174.43,0,0,1,0,246.66L1123.33,1820.1a174.43,174.43,0,0,1-246.66,0L179.9,1123.33a174.43,174.43,0,0,1,0-246.66L876.67,179.9A173.27,173.27,0,0,1,1000,128.82m0-40a213.74,213.74,0,0,0-151.62,62.8L151.62,848.38c-83.74,83.74-83.74,219.5,0,303.24l696.76,696.76a214.43,214.43,0,0,0,303.24,0l696.76-696.76c83.74-83.74,83.74-219.5,0-303.24L1151.62,151.62A213.74,213.74,0,0,0,1000,88.82Z" transform="translate(-88.82 -88.82)"/><path class="cls-2" d="M1217.29,984.53h105.15a70.84,70.84,0,0,1,70.83,70.84V1453h-99.44a53.65,53.65,0,0,1-53.65-53.65h0q-107.29,66.73-269,66.73-138.8,0-254.68-55T531.24,1251.48q-69.39-104.68-69.39-249.94,0-137.4,70.11-246.65T725.82,584.78q123.76-60.84,278.3-60.85,125.89,0,228.9,38t173.13,111.2h0c-61.3,54.7-148.86,67.65-223.93,34.26q-77-34.26-169.52-34.26-105.87,0-188.15,41.23T695.79,830.13q-46.5,74.6-46.5,170.1,0,100.77,46.5,173.4t123.74,109.91q77.26,37.29,168.84,37.3a417.45,417.45,0,0,0,123.75-18.32q59.39-18.32,105.17-53.66Z" transform="translate(-88.82 -88.82)"/></svg>