<?xml version="1.0" ?><!DOCTYPE svg  PUBLIC '-//W3C//DTD SVG 1.1//EN'  'http://www.w3.org/Graphics/SVG/1.1/DTD/svg11.dtd'><svg enable-background="new 0 0 24 24" height="24px" id="Layer_1" version="1.1" viewBox="0 0 24 24" width="24px" xml:space="preserve" xmlns="http://www.w3.org/2000/svg" xmlns:xlink="http://www.w3.org/1999/xlink"><path d="M21,6h-2V4c0-2.2-1.8-4-4-4H9C6.8,0,5,1.8,5,4v2H3C2.4,6,2,6.4,2,7v1c0,0.6,0.4,1,1,1v8c0,0.6,0.4,1,1,1h6v3H8  c-0.6,0-1,0.4-1,1v2h10v-2c0-0.6-0.4-1-1-1h-2v-3h6c0.6,0,1-0.4,1-1V9c0.6,0,1-0.4,1-1V7C22,6.4,21.6,6,21,6z M7,4c0-1.1,0.9-2,2-2  h6c1.1,0,2,0.9,2,2v8H7V4z M3,8V7h2v5H4V8H3z M16,22v1H8v-1H16z M13,21h-2v-3h2V21z M19,16H5v-2h14V16z M21,8h-1v4h-1V7h2V8z"/></svg>