<?xml version="1.0" ?><svg viewBox="0 0 32 32" xmlns="http://www.w3.org/2000/svg"><title/><g data-name="Layer 7" id="Layer_7"><path d="M24,25H8a1.5,1.5,0,0,1-1.5-1.5V7.5A1.5,1.5,0,0,1,8,6H24a1.5,1.5,0,0,1,1.5,1.5v16A1.5,1.5,0,0,1,24,25ZM8,7a.5.5,0,0,0-.5.5v16A.5.5,0,0,0,8,24H24a.5.5,0,0,0,.5-.5V7.5A.5.5,0,0,0,24,7Z"/><path d="M25,21H7a.5.5,0,0,1,0-1H25a.5.5,0,0,1,0,1Z"/><path d="M25,17H7a.5.5,0,0,1,0-1H25a.5.5,0,0,1,0,1Z"/><path d="M16,16.75a.5.5,0,0,1-.5-.5V6.75a.5.5,0,0,1,1,0v9.5A.5.5,0,0,1,16,16.75Z"/><path d="M7,26a.5.5,0,0,1-.5-.5V23.32a.5.5,0,0,1,1,0V25.5A.5.5,0,0,1,7,26Z"/><path d="M25,26a.5.5,0,0,1-.5-.5V23.32a.5.5,0,0,1,1,0V25.5A.5.5,0,0,1,25,26Z"/><path d="M26.09,7H23.91a.5.5,0,0,1,0-1h2.18a.5.5,0,1,1,0,1Z"/><path d="M8.09,7H5.91a.5.5,0,0,1,0-1H8.09a.5.5,0,0,1,0,1Z"/><path d="M14,13a.52.52,0,0,1-.46-.29,3.08,3.08,0,0,1,0-2.42.51.51,0,1,1,.92.42,2,2,0,0,0,0,1.58A.49.49,0,0,1,14,13Z"/><path d="M18,13a.49.49,0,0,1-.46-.71,2,2,0,0,0,0-1.58.51.51,0,1,1,.92-.42,3.08,3.08,0,0,1,0,2.42A.52.52,0,0,1,18,13Z"/><path d="M16,19.21A3.12,3.12,0,0,1,14.79,19a.51.51,0,1,1,.42-.92,2,2,0,0,0,1.58,0,.51.51,0,0,1,.42.92A3.12,3.12,0,0,1,16,19.21Z"/><path d="M16,23.21A3.12,3.12,0,0,1,14.79,23a.51.51,0,1,1,.42-.92,2,2,0,0,0,1.58,0,.51.51,0,0,1,.42.92A3.12,3.12,0,0,1,16,23.21Z"/></g></svg>